<svg xmlns="http://www.w3.org/2000/svg" xmlns:xlink="http://www.w3.org/1999/xlink" width="27" height="30" viewBox="0 0 27 30">
    <defs>
        <path id="a" d="M0 0h27v30H0z"/>
    </defs>
    <g fill="none" fill-rule="evenodd">
        <mask id="b" fill="#fff">
            <use xlink:href="#a"/>
        </mask>
        <path fill="#FFF" d="M23.735 20.554A6.317 6.317 0 0 0 27 15a6.318 6.318 0 0 0-3.212-5.525v-.002L9.658 1.078A6.14 6.14 0 0 0 8.97.67L8.95.658V.66A6.077 6.077 0 0 0 6.193 0C2.773 0 0 2.822 0 6.303v17.394C0 27.178 2.773 30 6.193 30c.984 0 1.914-.235 2.74-.65l.013-.007a6.19 6.19 0 0 0 .726-.432l14.063-8.357z" mask="url(#b)"/>
    </g>
</svg>
